<?xml version="1.0" standalone="no"?>
<!DOCTYPE svg PUBLIC "-//W3C//DTD SVG 20010904//EN"
 "http://www.w3.org/TR/2001/REC-SVG-20010904/DTD/svg10.dtd">
<svg version="1.0" xmlns="http://www.w3.org/2000/svg"
 width="1600.000000pt" height="1600.000000pt" viewBox="0 0 1600.000000 1600.000000"
 preserveAspectRatio="xMidYMid meet">
<metadata>
Created by potrace 1.14, written by Peter Selinger 2001-2017
</metadata>
<g transform="translate(0.000000,1600.000000) scale(0.100000,-0.100000)"
fill="#000000" stroke="none">
<path d="M7515 15980 c-154 -12 -254 -20 -295 -25 -19 -2 -62 -6 -95 -10 -283
-27 -719 -105 -1050 -186 -564 -140 -1172 -366 -1695 -632 -107 -54 -199 -102
-205 -107 -5 -4 -41 -25 -80 -46 -392 -212 -913 -576 -1295 -904 -197 -169
-505 -465 -670 -646 -128 -140 -149 -164 -226 -254 -405 -478 -746 -991 -1034
-1555 -83 -163 -250 -523 -250 -540 0 -3 -9 -24 -19 -48 -65 -142 -215 -571
-280 -797 -49 -171 -146 -573 -166 -689 -2 -14 -16 -91 -30 -171 -14 -80 -28
-165 -31 -190 -3 -25 -7 -56 -10 -70 -8 -48 -23 -156 -29 -215 -12 -117 -14
-131 -20 -195 -16 -188 -28 -475 -29 -695 0 -147 12 -516 18 -565 2 -14 7 -72
10 -130 4 -58 9 -114 11 -125 2 -11 7 -47 10 -80 5 -51 37 -284 50 -365 3 -14
7 -42 10 -64 4 -21 9 -48 11 -60 2 -11 7 -37 10 -56 3 -19 7 -42 9 -50 2 -8 7
-31 10 -50 3 -19 8 -42 10 -50 2 -8 7 -31 10 -50 6 -38 20 -96 60 -263 15 -60
28 -117 30 -128 10 -49 92 -329 140 -474 83 -252 150 -424 291 -755 36 -84
235 -483 296 -594 177 -321 409 -679 627 -966 64 -85 211 -271 221 -280 3 -3
43 -50 90 -105 572 -678 1323 -1297 2135 -1759 211 -120 558 -292 770 -381 88
-37 174 -73 190 -80 99 -42 440 -165 540 -195 22 -6 47 -14 55 -17 8 -3 20 -7
25 -8 6 -2 48 -15 94 -29 339 -107 981 -238 1336 -272 39 -3 79 -8 89 -10 10
-2 58 -6 105 -9 47 -3 95 -8 106 -10 129 -25 956 -25 1235 0 25 2 76 6 115 10
127 10 190 16 215 20 14 2 50 6 80 10 45 5 244 36 405 62 76 12 412 85 525
113 401 101 928 280 1233 419 34 15 96 43 137 61 366 159 896 463 1285 739
108 76 363 267 375 281 3 3 39 32 80 65 379 302 834 761 1175 1184 94 117 266
345 317 421 328 483 527 833 751 1320 188 409 398 1041 492 1475 2 11 6 29 9
40 10 47 56 275 66 332 46 261 82 528 95 698 4 50 9 106 11 125 24 241 24
1045 0 1201 -3 13 -7 66 -11 117 -4 52 -8 103 -10 115 -5 32 -17 137 -21 172
-1 17 -5 44 -7 60 -5 27 -11 67 -22 145 -5 31 -53 306 -60 340 -33 163 -32
160 -85 378 -237 985 -704 1978 -1326 2818 -85 115 -255 333 -305 389 -14 17
-75 86 -135 155 -105 121 -497 520 -599 611 -28 24 -84 74 -125 111 -364 324
-881 691 -1330 944 -58 33 -123 70 -145 82 -50 29 -501 252 -509 252 -3 0 -36
14 -73 31 -239 110 -671 267 -983 358 -449 130 -1050 244 -1450 276 -100 8
-210 17 -260 21 -91 9 -899 12 -1005 4z"/>
</g>
</svg>
